# xmcd
#
# Track frame offsets:
#	150
#	24379
#	43560
#	60003
#	77418
#	99437
#	115431
#	132512
#	148339
#	170818
#	190169
#	211590
#	277622
#
# Disc length: 4440 seconds
#
# Revision: 3
# Processed by: cddbd v1.5.2PL0 Copyright (c) Steve Scherf et al.
# Submitted via: audiograbber 1.83.01
#
DISCID=a911560d
DTITLE=Urban, Keith - Golden road
DYEAR=2002
DGENRE=Country
TTITLE0=Somebody like you
TTITLE1=Who wouldn't wanna be me
TTITLE2=Whenever I run
TTITLE3=What about me
TTITLE4=You'll think of me
TTITLE5=Jeans on
TTITLE6=You look good in my shirt
TTITLE7=You're not alone tonight
TTITLE8=You won
TTITLE9=Song for dad
TTITLE10=Raining on Sunday
TTITLE11=You're not my god
TTITLE12=Data Track
EXTD=
EXTT0=
EXTT1=
EXTT2=
EXTT3=
EXTT4=
EXTT5=
EXTT6=
EXTT7=
EXTT8=
EXTT9=
EXTT10=
EXTT11=
EXTT12=
PLAYORDER=
